<!DOCTYPE svg PUBLIC "-//W3C//DTD SVG 1.1//EN" "http://www.w3.org/Graphics/SVG/1.1/DTD/svg11.dtd">
<!-- Uploaded to: SVG Repo, www.svgrepo.com, Transformed by: SVG Repo Mixer Tools -->
<svg width="800px" height="800px" viewBox="0 0 36 36" xmlns="http://www.w3.org/2000/svg" xmlns:xlink="http://www.w3.org/1999/xlink" aria-hidden="true" role="img" class="iconify iconify--twemoji" preserveAspectRatio="xMidYMid meet" fill="#000000">
<g id="SVGRepo_bgCarrier" stroke-width="0"/>
<g id="SVGRepo_tracerCarrier" stroke-linecap="round" stroke-linejoin="round"/>
<g id="SVGRepo_iconCarrier">
<path fill="#ffffff" d="M36 32a4 4 0 0 1-4 4H4a4 4 0 0 1-4-4V4a4 4 0 0 1 4-4h28a4 4 0 0 1 4 4v28z"/>
<path fill="#000000" d="M7.336 17.962c0-6.449 4.341-11.41 10.666-11.41c6.232 0 10.666 5.116 10.666 11.41c0 6.418-4.31 11.41-10.666 11.41c-6.294 0-10.666-4.992-10.666-11.41zm16.496 0c0-3.752-1.954-7.131-5.83-7.131c-3.876 0-5.829 3.379-5.829 7.131c0 3.782 1.891 7.132 5.829 7.132c3.938 0 5.83-3.35 5.83-7.132z"/>
</g>
</svg>